{
    "asset": {
        "version": "2.0",
        "generator": "Open Asset Import Library (assimp v5.0.5eb040c7)"
    },
    "accessors": [
        {
            "bufferView": 0,
            "byteOffset": 0,
            "componentType": 5126,
            "count": 8990,
            "type": "VEC3",
            "max": [
                25.444782257080079,
                10.199119567871094,
                5.37452507019043
            ],
            "min": [
                -25.44478416442871,
                -10.199119567871094,
                -5.374526023864746
            ]
        },
        {
            "bufferView": 1,
            "byteOffset": 0,
            "componentType": 5126,
            "count": 8990,
            "type": "VEC3",
            "max": [
                1.0,
                1.0,
                1.0
            ],
            "min": [
                -1.0,
                -1.0,
                -1.0
            ]
        },
        {
            "bufferView": 2,
            "byteOffset": 0,
            "componentType": 5126,
            "count": 8990,
            "type": "VEC2",
            "max": [
                0.9994999766349793,
                0.9994999766349793
            ],
            "min": [
                0.0005000000237487257,
                0.017597973346710206
            ]
        },
        {
            "bufferView": 3,
            "byteOffset": 0,
            "componentType": 5125,
            "count": 17880,
            "type": "SCALAR",
            "max": [
                8989
            ],
            "min": [
                0
            ]
        }
    ],
    "buffers": [
        {
            "byteLength": 359200,
            "uri": "result.bin"
        }
    ],
    "bufferViews": [
        {
            "buffer": 0,
            "byteOffset": 0,
            "byteLength": 107880,
            "target": 34962
        },
        {
            "buffer": 0,
            "byteOffset": 107880,
            "byteLength": 107880,
            "target": 34962
        },
        {
            "buffer": 0,
            "byteOffset": 215760,
            "byteLength": 71920,
            "target": 34962
        },
        {
            "buffer": 0,
            "byteOffset": 287680,
            "byteLength": 71520,
            "target": 34963
        }
    ],
    "materials": [
        {
            "name": "DefaultMaterial",
            "pbrMetallicRoughness": {
                "baseColorFactor": [
                    0.6000000238418579,
                    0.6000000238418579,
                    0.6000000238418579,
                    1.0
                ],
                "metallicFactor": 0.0
            }
        },
        {
            "name": "None",
            "pbrMetallicRoughness": {
                "baseColorFactor": [
                    0.6000000238418579,
                    0.6000000238418579,
                    0.6000000238418579,
                    1.0
                ],
                "metallicFactor": 0.0
            }
        }
    ],
    "meshes": [
        {
            "name": "Object001_Mesh",
            "primitives": [
                {
                    "mode": 4,
                    "material": 1,
                    "indices": 3,
                    "attributes": {
                        "POSITION": 0,
                        "NORMAL": 1,
                        "TEXCOORD_0": 2
                    }
                }
            ]
        }
    ],
    "nodes": [
        {
            "name": "input.obj",
            "children": [
                1
            ]
        },
        {
            "name": "Object001_Mesh",
            "mesh": 0
        }
    ],
    "scenes": [
        {
            "nodes": [
                0
            ]
        }
    ],
    "scene": 0
}